<svg id="svg" version="1.1" xmlns="http://www.w3.org/2000/svg" xmlns:xlink="http://www.w3.org/1999/xlink" width="400" height="86.34772462077012" viewBox="0, 0, 400,86.34772462077012"><g id="svgg"><path id="path0" d="M44.667 8.505 C 33.274 8.757,24.143 9.534,20.833 10.535 C 16.518 11.839,13.372 15.531,12.696 20.083 C 11.828 25.922,11.665 27.485,11.129 35.083 C 10.558 43.156,11.086 55.378,12.247 61.000 C 12.370 61.596,12.563 62.533,12.675 63.083 C 13.053 64.942,14.304 68.000,14.687 68.000 C 14.767 68.000,14.833 68.096,14.833 68.213 C 14.833 69.260,19.204 72.204,21.667 72.816 C 30.890 75.108,75.937 75.424,92.500 73.313 C 97.453 72.681,101.096 70.329,102.900 66.596 C 105.317 61.597,106.585 40.655,105.237 28.000 C 104.299 19.187,103.297 16.076,100.513 13.333 C 97.336 10.205,95.136 9.687,81.333 8.825 C 74.373 8.391,56.807 8.237,44.667 8.505 M49.984 27.917 C 50.543 28.238,51.431 28.749,51.958 29.054 C 52.485 29.359,55.617 31.170,58.917 33.077 C 62.217 34.985,66.492 37.462,68.417 38.581 C 70.342 39.701,72.235 40.791,72.625 41.006 C 73.603 41.543,73.914 41.295,67.875 44.799 C 54.789 52.392,49.092 55.667,48.967 55.667 C 48.893 55.667,48.833 49.292,48.833 41.500 C 48.833 33.708,48.864 27.333,48.901 27.333 C 48.938 27.333,49.425 27.596,49.984 27.917 " stroke="none" fill="#fc0404" fill-rule="evenodd"></path><path id="path1" d="M114.875 41.458 L 114.917 69.583 119.125 69.628 L 123.333 69.672 123.333 56.253 L 123.333 42.833 125.500 42.833 C 126.709 42.833,127.667 42.901,127.667 42.987 C 127.667 43.071,127.884 43.188,128.149 43.246 C 129.782 43.605,129.831 44.023,129.832 57.875 L 129.833 69.667 134.007 69.667 L 138.181 69.667 138.119 57.375 C 138.058 45.138,137.981 43.500,137.472 43.500 C 137.396 43.500,137.333 43.413,137.333 43.306 C 137.333 42.995,136.782 41.833,136.635 41.833 C 136.561 41.833,136.500 41.744,136.500 41.635 C 136.500 41.365,134.601 39.555,134.176 39.420 C 133.988 39.360,133.833 39.241,133.833 39.155 C 133.833 39.070,133.740 38.998,133.625 38.995 C 132.888 38.976,132.797 38.512,133.478 38.239 C 133.857 38.088,134.167 37.897,134.167 37.815 C 134.167 37.734,134.278 37.667,134.415 37.667 C 135.047 37.667,137.333 35.271,137.333 34.609 C 137.333 34.458,137.398 34.333,137.477 34.333 C 138.334 34.333,138.342 18.437,137.485 17.907 C 137.402 17.856,137.333 17.667,137.333 17.487 C 137.333 16.303,134.627 14.000,133.234 14.000 C 133.029 14.000,132.836 13.932,132.806 13.849 C 132.675 13.495,129.398 13.334,122.291 13.334 L 114.832 13.333 114.875 41.458 M176.333 21.789 L 176.333 30.246 175.753 29.383 C 175.175 28.526,174.227 27.667,173.859 27.667 C 173.753 27.667,173.667 27.601,173.667 27.522 C 173.667 27.246,172.079 26.917,170.750 26.917 C 169.438 26.917,167.500 27.270,167.500 27.509 C 167.500 27.576,167.331 27.674,167.125 27.728 C 166.373 27.922,164.500 30.151,164.500 30.851 C 164.500 31.014,164.425 31.193,164.333 31.250 C 164.242 31.307,164.167 31.634,164.167 31.977 C 164.167 32.319,164.073 32.694,163.958 32.808 C 163.795 32.972,163.750 36.309,163.750 48.369 C 163.750 60.504,163.794 63.737,163.958 63.792 C 164.075 63.831,164.167 64.133,164.167 64.482 C 164.167 65.593,165.265 67.898,166.151 68.645 C 166.327 68.795,166.625 69.044,166.811 69.200 C 167.824 70.045,173.833 70.145,173.833 69.317 C 173.833 69.234,173.954 69.167,174.101 69.167 C 174.477 69.167,175.335 68.412,175.867 67.611 L 176.318 66.934 176.367 68.259 L 176.417 69.583 179.875 69.628 L 183.333 69.673 183.333 41.503 L 183.333 13.333 179.833 13.333 L 176.333 13.333 176.333 21.789 M186.333 41.500 L 186.333 69.667 190.500 69.667 L 194.667 69.667 194.667 58.500 L 194.667 47.333 197.240 47.333 C 198.776 47.333,199.855 47.266,199.917 47.167 C 199.973 47.075,200.380 47.000,200.821 47.000 C 204.269 47.000,207.259 45.518,208.218 43.335 C 208.399 42.921,208.597 42.546,208.657 42.500 C 208.846 42.356,209.163 41.082,209.275 40.016 C 209.334 39.452,209.446 38.950,209.524 38.902 C 209.732 38.773,209.708 22.500,209.500 22.500 C 209.408 22.500,209.333 22.197,209.333 21.826 C 209.333 20.946,208.849 18.599,208.653 18.528 C 208.569 18.497,208.500 18.363,208.500 18.229 C 208.500 17.931,207.876 16.674,207.559 16.333 C 207.431 16.196,207.172 15.877,206.984 15.625 C 206.796 15.373,206.535 15.167,206.405 15.167 C 206.274 15.167,206.167 15.098,206.167 15.014 C 206.167 14.780,204.676 14.000,204.229 14.000 C 204.011 14.000,203.833 13.936,203.833 13.858 C 203.833 13.473,201.195 13.333,193.926 13.333 L 186.333 13.333 186.333 41.500 M212.500 41.500 L 212.500 69.667 216.000 69.667 L 219.500 69.667 219.500 41.500 L 219.500 13.333 216.000 13.333 L 212.500 13.333 212.500 41.500 M269.667 41.583 L 269.667 69.833 277.213 69.833 C 284.410 69.833,287.512 69.682,287.639 69.324 C 287.669 69.237,287.951 69.167,288.264 69.167 C 288.577 69.167,288.833 69.100,288.833 69.018 C 288.833 68.936,289.017 68.823,289.242 68.767 C 289.953 68.589,291.614 66.903,291.935 66.034 C 292.094 65.603,292.276 65.175,292.340 65.083 C 292.815 64.401,292.917 62.362,292.917 53.500 C 292.917 44.543,292.854 43.298,292.342 42.083 C 291.340 39.705,290.056 38.163,288.570 37.552 C 288.165 37.386,287.834 37.194,287.834 37.125 C 287.834 37.056,287.552 36.991,287.208 36.981 C 286.843 36.969,286.722 36.927,286.917 36.878 C 287.100 36.832,287.287 36.747,287.333 36.688 C 287.379 36.630,287.866 36.433,288.416 36.250 C 288.966 36.067,289.547 35.786,289.708 35.626 C 289.868 35.465,290.065 35.333,290.145 35.333 C 290.444 35.333,291.787 33.645,291.999 33.002 C 292.121 32.634,292.271 32.333,292.333 32.333 C 293.206 32.333,293.118 19.555,292.233 17.860 C 292.106 17.616,292.002 17.313,292.001 17.186 C 291.998 16.558,290.311 14.610,289.403 14.188 C 288.420 13.730,288.200 13.656,287.352 13.499 C 286.832 13.403,282.923 13.333,278.061 13.333 L 269.667 13.333 269.667 41.583 M320.667 20.330 L 320.667 27.333 319.417 27.333 L 318.167 27.333 318.167 30.833 L 318.167 34.333 319.417 34.333 L 320.667 34.333 320.667 48.240 C 320.667 57.332,320.724 62.183,320.833 62.250 C 320.925 62.307,321.000 62.875,321.000 63.512 C 321.000 64.150,321.073 64.801,321.163 64.961 C 321.252 65.120,321.409 65.587,321.511 66.000 C 321.735 66.903,323.336 68.568,324.154 68.747 C 324.434 68.809,324.706 68.928,324.758 69.013 C 324.810 69.097,325.142 69.167,325.496 69.167 C 325.850 69.167,326.168 69.253,326.203 69.358 C 326.245 69.486,327.107 69.576,328.800 69.631 L 331.333 69.712 331.333 66.106 C 331.333 62.648,331.320 62.500,331.010 62.500 C 330.832 62.500,330.646 62.435,330.597 62.355 C 330.548 62.276,330.124 62.160,329.655 62.098 C 328.742 61.976,328.000 61.399,328.000 60.809 C 328.000 60.639,327.925 60.500,327.833 60.500 C 327.724 60.500,327.667 56.028,327.667 47.417 L 327.667 34.333 329.500 34.333 L 331.333 34.333 331.333 30.833 L 331.333 27.333 329.502 27.333 L 327.670 27.333 327.627 20.375 L 327.583 13.417 324.125 13.372 L 320.667 13.327 320.667 20.330 M335.444 13.444 C 335.383 13.506,335.333 16.656,335.333 20.444 L 335.333 27.333 334.167 27.333 L 333.000 27.333 333.000 30.833 L 333.000 34.333 334.150 34.333 L 335.301 34.333 335.359 48.658 C 335.404 59.833,335.462 63.029,335.625 63.192 C 335.740 63.306,335.833 63.581,335.833 63.801 C 335.833 64.414,336.370 66.500,336.527 66.500 C 336.604 66.500,336.667 66.605,336.667 66.732 C 336.667 66.948,337.269 67.633,337.892 68.127 C 338.516 68.622,339.757 69.167,340.261 69.167 C 340.560 69.167,340.833 69.250,340.868 69.353 C 340.908 69.474,341.842 69.569,343.548 69.627 L 346.167 69.715 346.167 66.107 L 346.167 62.500 345.760 62.500 C 345.536 62.500,345.307 62.425,345.250 62.333 C 345.193 62.242,344.962 62.167,344.735 62.167 C 343.665 62.167,342.667 61.285,342.667 60.342 C 342.667 60.154,342.592 60.000,342.500 60.000 C 342.390 60.000,342.333 55.611,342.333 47.167 L 342.333 34.333 344.250 34.333 L 346.167 34.333 346.167 30.833 L 346.167 27.333 344.250 27.333 L 342.333 27.333 342.333 20.333 L 342.333 13.333 338.944 13.333 C 337.081 13.333,335.506 13.383,335.444 13.444 M127.167 21.762 C 129.281 22.201,129.833 23.580,129.833 28.424 C 129.833 33.885,129.259 34.667,125.247 34.667 L 123.333 34.667 123.333 28.068 L 123.333 21.469 124.958 21.555 C 125.852 21.602,126.846 21.695,127.167 21.762 M198.532 21.757 C 199.183 21.874,200.500 22.872,200.500 23.249 C 200.500 23.372,200.574 23.497,200.663 23.528 C 201.024 23.650,201.166 25.615,201.163 30.398 C 201.156 38.092,200.898 38.571,196.644 38.785 L 194.667 38.884 194.667 30.176 L 194.667 21.469 196.292 21.558 C 197.185 21.607,198.193 21.696,198.532 21.757 M282.125 21.761 C 282.515 21.820,282.833 21.935,282.833 22.018 C 282.833 22.100,282.942 22.167,283.075 22.167 C 283.331 22.167,284.167 23.157,284.167 23.460 C 284.167 23.558,284.260 23.670,284.375 23.708 C 284.638 23.796,284.678 29.945,284.416 30.131 C 284.325 30.196,284.140 30.463,284.006 30.723 C 283.545 31.616,281.984 32.161,279.875 32.164 L 278.333 32.167 278.333 26.817 L 278.333 21.468 279.875 21.560 C 280.723 21.611,281.735 21.701,282.125 21.761 M149.167 26.933 C 147.889 27.088,146.457 27.355,146.194 27.488 C 146.042 27.566,145.514 27.804,145.021 28.019 C 143.943 28.489,142.740 29.782,142.480 30.750 C 142.381 31.117,142.242 31.492,142.169 31.583 C 141.296 32.692,141.278 64.242,142.150 65.414 C 142.219 65.507,142.408 65.940,142.568 66.375 C 142.729 66.810,142.930 67.167,143.014 67.167 C 143.098 67.167,143.167 67.243,143.167 67.336 C 143.167 67.572,144.158 68.452,144.708 68.705 C 144.960 68.820,145.167 68.971,145.167 69.041 C 145.167 69.110,145.423 69.167,145.736 69.167 C 146.049 69.167,146.331 69.243,146.362 69.336 C 146.607 70.071,156.833 70.048,156.833 69.313 C 156.833 69.232,157.022 69.167,157.253 69.167 C 158.062 69.167,159.569 68.013,160.084 67.000 C 160.247 66.679,160.453 66.274,160.540 66.101 C 160.909 65.369,161.165 62.787,161.166 59.788 L 161.167 56.660 157.792 56.705 L 154.417 56.750 154.293 58.480 C 154.224 59.441,154.058 60.434,153.918 60.714 C 153.780 60.991,153.661 61.300,153.655 61.401 C 153.587 62.422,150.526 63.046,149.480 62.252 C 148.573 61.562,148.500 61.096,148.500 55.999 L 148.500 51.333 154.843 51.333 L 161.185 51.333 161.124 42.292 C 161.064 33.430,160.931 31.167,160.471 31.167 C 160.395 31.167,160.333 31.015,160.333 30.830 C 160.333 29.768,158.105 27.667,156.979 27.667 C 156.807 27.667,156.667 27.603,156.667 27.524 C 156.667 27.163,150.977 26.714,149.167 26.933 M356.583 26.929 C 354.657 27.199,353.667 27.400,353.667 27.524 C 353.667 27.602,353.521 27.667,353.342 27.667 C 352.859 27.667,351.516 28.429,351.019 28.986 C 349.054 31.187,349.000 31.712,349.000 48.708 L 349.000 62.703 349.421 64.452 C 350.003 66.868,351.053 68.465,352.259 68.767 C 352.483 68.823,352.667 68.936,352.667 69.018 C 352.667 69.100,352.892 69.167,353.167 69.167 C 353.442 69.167,353.667 69.232,353.667 69.313 C 353.667 69.594,356.435 69.905,358.917 69.903 C 361.453 69.901,364.333 69.589,364.333 69.316 C 364.333 69.234,364.558 69.167,364.833 69.167 C 365.108 69.167,365.333 69.092,365.333 69.000 C 365.333 68.908,365.456 68.833,365.605 68.833 C 365.988 68.833,367.667 67.069,367.667 66.667 C 367.667 66.483,367.732 66.333,367.811 66.333 C 368.034 66.333,368.366 64.730,368.449 63.250 C 368.491 62.517,368.594 61.845,368.679 61.758 C 368.897 61.535,368.885 35.885,368.667 35.750 C 368.575 35.693,368.500 35.108,368.500 34.448 C 368.501 33.200,368.061 31.000,367.811 31.000 C 367.732 31.000,367.667 30.809,367.667 30.576 C 367.667 30.097,367.554 29.932,366.492 28.848 C 366.015 28.362,365.459 27.989,364.992 27.841 C 364.584 27.712,364.175 27.552,364.083 27.485 C 363.571 27.113,358.147 26.710,356.583 26.929 M228.833 27.196 C 228.237 27.281,227.679 27.421,227.592 27.508 C 227.505 27.595,227.302 27.667,227.142 27.667 C 226.222 27.667,224.734 28.906,224.240 30.083 C 224.086 30.450,223.895 30.900,223.816 31.083 C 223.404 32.039,222.794 39.222,223.064 39.928 C 223.140 40.125,223.759 40.167,226.578 40.167 L 230.000 40.167 230.000 38.025 C 230.000 35.987,230.187 34.833,230.516 34.833 C 230.599 34.833,230.667 34.730,230.667 34.603 C 230.667 33.701,234.287 33.877,235.235 34.825 L 235.750 35.339 235.799 40.420 L 235.847 45.500 232.600 45.500 C 230.814 45.500,229.313 45.565,229.264 45.645 C 229.214 45.724,228.794 45.840,228.330 45.901 C 225.711 46.249,223.848 48.519,223.326 52.000 C 222.865 55.071,223.141 64.016,223.739 65.417 C 223.857 65.692,224.035 66.119,224.136 66.366 C 224.653 67.640,226.874 69.167,228.211 69.167 C 228.538 69.167,228.837 69.260,228.875 69.375 C 228.929 69.536,230.523 69.596,235.899 69.638 L 242.853 69.693 242.789 51.555 C 242.725 33.468,242.652 31.167,242.142 31.167 C 242.064 31.167,242.000 31.015,242.000 30.830 C 242.000 30.433,241.295 29.270,240.746 28.761 C 240.413 28.452,239.826 28.151,238.250 27.481 C 237.160 27.018,231.321 26.841,228.833 27.196 M383.667 27.215 C 383.346 27.315,383.046 27.438,383.000 27.490 C 382.954 27.541,382.654 27.717,382.333 27.880 C 381.275 28.418,379.497 29.942,378.985 30.750 L 378.668 31.250 378.667 29.292 L 378.667 27.333 375.167 27.333 L 371.667 27.333 371.667 48.500 L 371.667 69.667 375.167 69.667 L 378.667 69.667 378.667 53.748 C 378.667 44.866,378.732 37.701,378.814 37.539 C 378.895 37.380,379.048 37.063,379.154 36.833 C 380.334 34.281,383.734 34.613,384.319 37.338 C 384.442 37.913,384.500 43.216,384.500 53.928 L 384.500 69.673 387.958 69.628 L 391.417 69.583 391.463 52.833 C 391.525 30.734,391.444 30.115,388.143 27.572 C 387.416 27.012,384.954 26.816,383.667 27.215 M296.701 45.458 C 296.737 58.623,296.802 63.675,296.940 63.917 C 297.044 64.100,297.208 64.679,297.305 65.204 C 297.817 67.985,299.553 69.769,301.934 69.960 C 303.103 70.054,304.897 69.746,305.252 69.391 C 305.375 69.268,305.565 69.167,305.673 69.167 C 305.953 69.167,307.968 67.566,308.701 66.761 L 309.319 66.083 309.326 67.875 L 309.333 69.667 312.833 69.667 L 316.333 69.667 316.333 48.497 L 316.333 27.327 312.875 27.372 L 309.417 27.417 309.333 43.583 C 309.258 58.240,309.224 59.797,308.973 60.250 C 308.328 61.416,307.054 62.121,306.000 61.895 C 305.375 61.762,304.667 61.474,304.667 61.353 C 304.667 61.295,304.487 61.053,304.267 60.815 C 303.654 60.155,303.635 59.660,303.563 42.875 L 303.497 27.333 300.074 27.333 L 296.652 27.333 296.701 45.458 M49.000 41.494 C 49.000 49.197,49.043 55.500,49.095 55.500 C 49.206 55.500,49.176 55.517,55.167 52.041 C 57.688 50.579,61.288 48.495,63.167 47.412 C 65.046 46.328,67.746 44.767,69.167 43.942 C 70.587 43.117,72.113 42.240,72.557 41.992 L 73.365 41.542 72.391 40.989 C 71.316 40.379,60.887 34.345,59.167 33.337 C 56.978 32.056,49.739 27.877,49.375 27.686 L 49.000 27.488 49.000 41.494 M246.241 27.880 C 245.739 29.189,246.344 66.667,246.868 66.667 C 246.940 66.667,247.000 66.777,247.000 66.911 C 247.000 67.249,247.532 68.333,247.698 68.333 C 247.772 68.333,247.833 68.411,247.833 68.506 C 247.833 68.751,248.679 69.538,249.258 69.833 C 249.529 69.970,249.804 70.158,249.869 70.250 C 250.037 70.486,254.347 70.465,254.850 70.226 C 255.070 70.121,255.588 69.916,256.000 69.770 C 256.827 69.477,257.705 68.771,258.513 67.750 L 259.041 67.083 258.965 69.269 C 258.819 73.495,258.546 73.657,251.542 73.663 L 247.000 73.667 247.000 77.250 L 247.000 80.833 252.217 80.833 C 255.086 80.833,257.505 80.770,257.592 80.693 C 257.679 80.616,258.170 80.463,258.684 80.353 C 260.109 80.049,262.009 78.993,263.045 77.930 C 264.098 76.850,265.000 75.379,265.000 74.743 C 265.000 74.533,265.078 74.335,265.174 74.303 C 265.786 74.099,265.837 72.063,265.793 49.583 L 265.750 27.750 262.750 27.703 C 261.100 27.676,259.583 27.696,259.378 27.747 L 259.006 27.838 258.961 44.544 C 258.919 60.471,258.902 61.278,258.606 61.850 C 257.718 63.565,254.791 63.571,253.591 61.861 L 253.083 61.138 253.000 44.444 L 252.917 27.750 249.621 27.705 C 247.013 27.669,246.308 27.705,246.241 27.880 M153.295 34.182 C 154.178 34.733,154.246 35.104,154.304 39.708 L 154.358 44.000 151.421 44.000 L 148.484 44.000 148.534 39.555 C 148.571 36.184,148.634 35.094,148.792 35.042 C 148.906 35.003,149.000 34.875,149.000 34.755 C 149.000 33.884,152.146 33.464,153.295 34.182 M360.500 34.104 C 360.926 34.284,361.184 34.563,361.458 35.139 L 361.833 35.927 361.833 48.213 C 361.833 55.586,361.772 60.500,361.680 60.500 C 361.596 60.500,361.477 60.726,361.416 61.003 C 360.996 62.918,356.333 63.281,356.333 61.399 C 356.333 61.271,356.258 61.167,356.167 61.167 C 356.057 61.167,356.000 56.722,356.000 48.167 C 356.000 40.237,356.061 35.167,356.155 35.167 C 356.241 35.167,356.359 35.015,356.418 34.829 C 356.731 33.844,358.950 33.450,360.500 34.104 M175.268 35.712 C 176.361 36.870,176.333 36.529,176.333 48.899 C 176.333 61.593,176.406 60.901,174.994 61.625 C 173.741 62.268,171.847 62.012,171.347 61.133 C 171.202 60.878,171.027 60.668,170.958 60.668 C 170.890 60.667,170.833 60.446,170.833 60.177 C 170.833 59.907,170.758 59.640,170.667 59.583 C 170.558 59.516,170.500 55.696,170.500 48.667 C 170.500 41.637,170.558 37.817,170.667 37.750 C 170.758 37.693,170.833 37.351,170.833 36.990 C 170.833 36.629,170.890 36.333,170.958 36.333 C 171.027 36.333,171.233 36.108,171.417 35.833 C 172.135 34.757,174.303 34.689,175.268 35.712 M282.239 41.815 C 282.289 41.896,282.537 42.014,282.790 42.077 C 283.303 42.204,284.167 42.951,284.167 43.267 C 284.167 43.380,284.260 43.503,284.375 43.542 C 284.769 43.673,284.666 58.077,284.265 58.917 C 283.416 60.694,282.813 61.000,280.163 61.000 L 278.333 61.000 278.333 51.333 L 278.333 41.667 280.240 41.667 C 281.289 41.667,282.188 41.733,282.239 41.815 M235.833 57.917 L 235.833 62.833 234.625 62.828 C 232.215 62.817,231.211 62.597,230.573 61.940 L 230.000 61.350 230.000 58.269 C 230.000 54.611,230.031 54.496,231.250 53.543 C 231.753 53.149,232.425 53.021,234.042 53.011 L 235.833 53.000 235.833 57.917 " stroke="none" fill="#fcfbfb" fill-rule="evenodd"></path><path id="path2" d="M48.872 41.542 C 48.851 49.310,48.890 55.667,48.958 55.667 C 49.072 55.667,49.070 45.470,48.956 32.417 C 48.931 29.667,48.894 33.773,48.872 41.542 " stroke="none" fill="#fc9f9f" fill-rule="evenodd"></path><path id="path3" d="" stroke="none" fill="#fc7474" fill-rule="evenodd"></path><path id="path4" d="" stroke="none" fill="#fc8484" fill-rule="evenodd"></path></g></svg>